<svg width="18" height="18" viewBox="0 0 24 24" xmlns="http://www.w3.org/2000/svg">
    <path d="M4.792 16.244L.623 20.388a2.107 2.107 0 000 2.992h.002a2.136 2.136 0 003.01 0l4.167-4.142-3.01-2.994z"
            fill="currentColor"/>
    <path d="M2.853 10.193c-.373.32-.597.78-.615 1.268-.018.49.17.964.517 1.309l8.53 8.478c.326.327.77.507 1.233.507a1.73 1.73 0 001.228-.51 1.717 1.717 0 00-.003-2.434c-.86-.855-1.857-1.843-1.857-1.843s8.881-7.06 10.836-8.612a1.18 1.18 0 00.43-.776c.17-1.423.668-5.646.845-7.124a.406.406 0 00-.119-.337.414.414 0 00-.34-.116l-6.767.843c-.304.038-.578.19-.77.427L7.134 12.245s-1.087-1.085-1.973-1.962a1.702 1.702 0 00-2.305-.09h-.003zm7.519 4.69l9.922-9.861a.79.79 0 10-1.124-1.116l-9.922 9.863a.782.782 0 000 1.114c.31.31.813.31 1.124 0z"
            fill="currentColor"/>
</svg>
