<svg width="20" height="20" viewBox="0 0 13 13" xmlns="http://www.w3.org/2000/svg">
    <path fill-rule="evenodd" clip-rule="evenodd"
          d="M9.26079 7.95455C8.81065 8.69624 8.27081 9.38492 7.65039 10.0037 8.89098 10.0649 9.93336 10.8798 10.3293 12 10.4398 12.3128 10.5 12.6494 10.5 13h-8C2.5 12.6494 2.56016 12.3128 2.67071 12 3.06051 10.8972 4.07687 10.0903 5.29208 10.0071 4.64185 9.38722 4.0821 8.68624 3.6243 7.92541 2.04345 7.5019.817264 6.23255.458845 4.61967L.0119109 2.60847C-.0209887 2.46042.0150858 2.30544.109984 2.18714.204881 2.06884.348345 2 .500004 2H2.125L2.0664 1.06238C2.03042.48668 2.48763.0 3.06446.0H10.4278C10.7379.0 10.9837.261611 10.9643.571072L10.875 2H12.5C12.6517 2 12.7951 2.06884 12.89 2.18714 12.9849 2.30544 13.021 2.46042 12.9881 2.60847L12.5412 4.61967C12.1741 6.27143 10.8969 7.56289 9.26079 7.95455zM3.06446 1H9.93555L9.81384 2.94739C9.6499 5.57044 8.44402 8.00756 6.48331 9.72673 4.55626 8.14554 3.36636 5.83041 3.21013 3.33083L3.06446 1zM9.953 6.61086C10.4385 5.48113 10.7335 4.26477 10.8119 3.00977L10.8125 3H11.8767L11.565 4.40274C11.3551 5.34736 10.7603 6.13963 9.953 6.61086zM1.12331 3H2.1875L2.21208 3.39321C2.28039 4.48619 2.52658 5.54744 2.93057 6.53973 2.18268 6.06208 1.63472 5.30135 1.43503 4.40274L1.12331 3zM7.5 11C8.24029 11 8.88663 11.4022 9.23244 12H3.76757C4.11338 11.4022 4.75972 11 5.5 11h2z"
          fill="currentColor"/>
</svg>
