<svg height="18" width="18" viewBox="0 0 24 24" xmlns="http://www.w3.org/2000/svg">
    <path d="M18.442 17.96l2.167-1.289a1.216 1.216 0 011.286.03l1.929 1.278a.392.392 0 01.005.65c-1.77 1.219-8 5.371-10.743 5.371-.926 0-7.725-2.097-7.725-2.097V14.69h2.704c.883 0 1.741.27 2.46.777l1.635 1.152h3.671c.44 0 1.484 0 1.484 1.342 0 1.453-1.143 1.453-1.484 1.453h-5.395a.564.564 0 00-.565.56c0 .308.254.558.565.558h5.75s.82.006 1.473-.578c.414-.368.783-.972.783-1.993z"
          fill="currentColor"/>
    <path d="M4.399 14.667c0-.602-.494-1.09-1.1-1.09h-2.2c-.606 0-1.099.488-1.099 1.09v7.214c0 .602.493 1.09 1.099 1.09h2.2c.607 0 1.1-.488 1.1-1.09v-7.214z"
          fill="currentColor"/>
    <path d="M23.594 10.114a.142.142 0 00.002-.274c-1.165-.402-2.238-1.461-2.635-2.62a.142.142 0 00-.274 0c-.39 1.16-1.443 2.247-2.6 2.63a.141.141 0 00-.003.273c1.158.402 2.21 1.465 2.603 2.617a.142.142 0 00.274 0c.397-1.162 1.468-2.232 2.633-2.626zm-7.54-3.583a.215.215 0 00.158-.208.214.214 0 00-.157-.209c-1.774-.615-3.408-2.227-4.013-3.994a.213.213 0 00-.21-.158.214.214 0 00-.207.16c-.597 1.767-2.2 3.423-3.963 4.005a.216.216 0 00-.004.417c1.765.612 3.369 2.232 3.966 3.988.027.094.111.16.209.16a.214.214 0 00.207-.16c.606-1.77 2.24-3.401 4.014-4.001zm4.87-4.187a.11.11 0 00.08-.106.112.112 0 00-.08-.108c-.91-.314-1.749-1.142-2.058-2.048A.113.113 0 0018.76 0a.113.113 0 00-.108.082c-.306.908-1.128 1.758-2.032 2.055a.11.11 0 00-.082.106.109.109 0 00.08.108c.905.314 1.728 1.145 2.034 2.047a.11.11 0 00.108.08c.05 0 .093-.032.106-.08.31-.91 1.148-1.745 2.058-2.054z"
          fill="currentColor"/>
</svg>
