<svg height="18" width="18" viewBox="0 0 24 24" xmlns="http://www.w3.org/2000/svg">
    <path d="M18.442 18.141l2.167-1.25c.398-.23.898-.219 1.286.03l1.93 1.238a.373.373 0 01.005.63c-1.77 1.183-8 5.211-10.744 5.211-.926 0-7.725-2.034-7.725-2.034v-6.999h2.704c.881 0 1.741.265 2.46.755l1.635 1.117h3.671c.438 0 1.482 0 1.482 1.302 0 1.41-1.14 1.41-1.482 1.41h-5.395a.555.555 0 00-.565.543c0 .3.254.543.565.543h5.75s.82.004 1.473-.56c.414-.359.783-.944.783-1.936z" fill="currentColor"/>
    <path d="M4.399 15.02c0-.583-.494-1.058-1.1-1.058h-2.2c-.606 0-1.099.475-1.099 1.059v6.998c0 .583.493 1.057 1.099 1.057h2.2c.606 0 1.1-.474 1.1-1.057v-6.998z" fill="currentColor"/>
    <path fill-rule="evenodd" d="M20.895 6.395a.32.32 0 00-.202-.246.336.336 0 00-.32.043c-.91.64-1.942.965-1.942.965.04-3.622-2.211-5.914-5.873-7.13a.51.51 0 00-.541.141.463.463 0 00-.065.537c.833 1.5 1.205 2.868 1.068 4.825 0 0-.924-.426-1.26-1.51a.314.314 0 00-.205-.21.344.344 0 00-.3.043c-3.528 2.588-2.893 10.11 4.131 10.11 5.095 0 5.928-4.594 5.51-7.568zm-5.31-.56a.14.14 0 00-.03-.152.149.149 0 00-.158-.03c-2.764 1.222-3.878 6.061-.325 6.061 3.384 0 2.143-3.47.852-4.149a.111.111 0 00-.116.01.108.108 0 00-.05.106c.065.512-.148.819-.686.779-.209-.812.152-1.83.513-2.624z" fill="currentColor"/>
</svg>
